<svg xmlns="http://www.w3.org/2000/svg" viewBox="0 0 261.05 189.59">
    <defs>
        <style>.cls-1{fill:#5c88c6;}</style>
    </defs>
    <title>Asset 62</title>
    <g id="Layer_2" data-name="Layer 2">
        <g id="Layer_1-2" data-name="Layer 1">
           <path class="cls-1" d="M180.06,86.6c0,20.22-17.76,36.53-46.43,36.53H78.47V63.52h53.28c17.58,0,28.57,9.54,28.57,22.1,0,11.09-8.27,21.37-26.31,21.37H98.2V79.66h7.9v20.48H134c13.16,0,18.42-6.77,18.42-14.52,0-8-6.49-15.25-20.68-15.25H86.36v45.91h47.27c25,0,38.53-13.86,38.53-29.68,0-15.26-8.55-24.23-21.33-29,6.11-4.16,13.82-10.84,13.82-24.71,0-12.8-13.16-25.12-35.72-25.12H86.36V47.45h42.48c11,0,16.45-4.57,16.45-13.05C145.29,27.47,138,24,127.43,24H106.1V38.15H98.2v-21h29.23c19,0,25.75,9.13,25.75,17.29,0,12.72-9.3,19.9-25.09,19.9H78.47V1h50.46c27.26,0,43.61,15.66,43.61,32a34,34,0,0,1-8.74,23.33C174.14,62.86,180.06,72.89,180.06,86.6Z"/>
            <path class="cls-1" d="M133.63,124.09H77.5V62.55h54.25c17.39,0,29.53,9.49,29.53,23.07,0,10.3-7.14,22.33-27.27,22.33H97.24V78.7h9.82V99.18H134c11.09,0,17.46-5,17.46-13.56,0-6.6-5.17-14.29-19.72-14.29H87.32v44h46.31c18.1,0,37.57-9,37.57-28.72,0-13.53-7-23-20.7-28.06l-1.75-.64,1.54-1c6.24-4.25,13.4-10.8,13.4-23.92,0-11.71-12.18-24.16-34.76-24.16H87.32V46.49h41.52c10.28,0,15.48-4.07,15.48-12.09,0-5.94-6.31-9.48-16.89-9.48H107.06V39.11H97.24v-23h30.19c19.72,0,26.71,9.83,26.71,18.25,0,13.26-9.49,20.86-26,20.86H77.5V0h51.43c28.95,0,44.57,17,44.57,32.93a35.06,35.06,0,0,1-8.24,23.14C175.72,63.14,181,73.4,181,86.6,181,108.67,161.53,124.09,133.63,124.09Zm-54.2-1.92h54.2c26.77,0,45.47-14.63,45.47-35.57,0-12.89-5.32-22.83-15.82-29.53l-1-.62.79-.85a32.94,32.94,0,0,0,8.48-22.67c0-15-15-31-42.65-31H79.43V53.34h48.66c15.33,0,24.13-6.91,24.13-18.94,0-7.9-6.51-16.33-24.79-16.33H99.16V37.19h6V23h22.3c11.78,0,18.82,4.26,18.82,11.4,0,6.39-3,14-17.41,14H85.4V6.85h43.53c23.82,0,36.68,13.44,36.68,26.08,0,13-6.53,19.93-12.76,24.47,13.45,5.53,20.27,15.34,20.27,29.2,0,21.05-20.47,30.65-39.49,30.65H85.4V69.4h46.35c16,0,21.64,8.74,21.64,16.22,0,9.69-7.25,15.48-19.38,15.48H105.13V80.62h-6V106H134c18.71,0,25.35-11,25.35-20.4,0-12.45-11.35-21.14-27.61-21.14H79.43Z"/>
        </g>
    </g>
</svg>